g HALF_PIPE_RIGHT
v 11.000008 12.000001 -0.81081104
v 10.759628 9.712971 -0.75268173
v 10.049004 7.525896 -0.7236166
v 8.899193 5.5343604 -0.63642216
v 7.3604393 3.8254042 -0.52016354
v 5.500004 2.4737177 -0.40390396
v 3.399189 1.5383759 -0.2585802
v 1.1498146 1.060256 -0.113256454
v -1.1498127 1.060256 0.06113243
v -3.399187 1.5383759 0.23552132
v -5.5 2.4737186 0.35177994
v -7.3604374 3.825406 0.49710464
v -8.899188 5.534362 0.61336327
v -10.049001 7.5258965 0.6714926
v -10.759624 9.712971 0.72962284
v -11 12 0.758687
v 11.000008 12.000001 24
v 10.759628 9.712971 24
v 10.049004 7.525896 24
v 8.899193 5.5343604 24
v 7.3604393 3.8254042 24
v 5.500004 2.4737177 24
v 3.399189 1.5383759 24
v 1.1498146 1.060256 24
v -1.1498127 1.060256 24
v -3.399187 1.5383759 24
v -5.5 2.4737186 24
v -7.3604374 3.825406 24
v -8.899188 5.534362 24
v -10.049001 7.5258965 24
v -10.759624 9.712971 24
v -11 12 24
v 12 12 -0.8398762
v 12 12 24
v -12 12 0.8256111
v -12 12 24
v 12 0 -0.8398762
v 12 0 24
v -12 0 0.8256111
v -12 0 24
v 11.000008 12.000001 24
v 11.000008 12.000001 -0.81081104
v -11 12 0.758687
v -11 12 24
v 12 12 24
v 12 12 -0.8398762
v -12 12 0.8256111
v -12 12 24
vt -0.0014297366 0.0021139383
vt 0.04146135 0.0021128654
vt 0.0880523 0.0021097362
vt 0.13991103 0.00210464
vt 0.19929782 0.002097845
vt 0.26919287 0.0020896196
vt 0.35245198 0.0020803213
vt 0.4488287 0.0020703971
vt 0.5510742 0.0020602047
vt 0.64747214 0.0020502508
vt 0.73075897 0.0020409822
vt 0.80067784 0.002032727
vt 0.86008215 0.002025932
vt 0.9119531 0.0020208359
vt 0.9585527 0.0020177066
vt 1.0014498 0.0020166337
vt -0.001449883 0.99798334
vt 0.04144728 0.99798226
vt 0.08804685 0.99797916
vt 0.13991788 0.99797404
vt 0.19932222 0.99796724
vt 0.2692411 0.997959
vt 0.35252798 0.9979497
vt 0.44892597 0.9979398
vt 0.5511715 0.99792963
vt 0.6475482 0.9979197
vt 0.73080724 0.9979104
vt 0.80070233 0.99790215
vt 0.86008906 0.99789536
vt 0.9119477 0.99789023
vt 0.95853865 0.99788713
vt 1.0014298 0.99788606
vt 1 1
vt 0 1
vt 0 1
vt 1 1
vt 1 1
vt 0 1
vt 0 1
vt 1 1
vt 0 0
vt 1 0
vt 0 0
vt 1 0
vt 0 0
vt 1 0
vt 0 0
vt 1 0
vn -0.99452186 0.1045288 0
vn -0.97814745 0.20791249 0
vn -0.9135453 0.4067369 0
vn -0.8090171 0.587785 0
vn -0.66913056 0.74314487 0
vn -0.49999964 0.8660256 0
vn -0.30901667 0.9510566 0
vn -0.10452856 0.9945219 0
vn 0.10452853 0.9945219 0
vn 0.30901715 0.9510565 0
vn 0.50000024 0.86602527 0
vn 0.66913056 0.74314487 0
vn 0.8090169 0.58778536 0
vn 0.91354567 0.4067361 0
vn 0.9781477 0.20791136 0
vn 0.99452186 0.10452887 0
vn -0.99452186 0.1045288 0
vn -0.97814745 0.20791249 0
vn -0.9135453 0.4067369 0
vn -0.8090171 0.587785 0
vn -0.66913056 0.74314487 0
vn -0.49999964 0.8660256 0
vn -0.30901667 0.9510566 0
vn -0.10452856 0.9945219 0
vn 0.10452853 0.9945219 0
vn 0.30901715 0.9510565 0
vn 0.50000024 0.86602527 0
vn 0.66913056 0.74314487 0
vn 0.8090169 0.58778536 0
vn 0.91354567 0.4067361 0
vn 0.9781477 0.20791136 0
vn 0.99452186 0.10452887 0
vn -0 1 0
vn -0 1 0
vn -0 1 0
vn -0 1 0
vn -1 0 0
vn -1 0 0
vn 1 0 0
vn 1 0 0
vn -0 1 0
vn -0 1 0
vn -0 1 0
vn -0 1 0
vn -1 0 0
vn -1 0 0
vn 1 0 0
vn 1 0 0
g HALF_PIPE_RIGHT_0
f 15/15/15 16/16/16 32/32/32
f 31/31/31 15/15/15 32/32/32
f 14/14/14 15/15/15 31/31/31
f 30/30/30 14/14/14 31/31/31
f 13/13/13 14/14/14 30/30/30
f 29/29/29 13/13/13 30/30/30
f 12/12/12 13/13/13 29/29/29
f 28/28/28 12/12/12 29/29/29
f 11/11/11 12/12/12 28/28/28
f 27/27/27 11/11/11 28/28/28
f 10/10/10 11/11/11 27/27/27
f 26/26/26 10/10/10 27/27/27
f 9/9/9 10/10/10 26/26/26
f 25/25/25 9/9/9 26/26/26
f 8/8/8 9/9/9 25/25/25
f 24/24/24 8/8/8 25/25/25
f 7/7/7 8/8/8 24/24/24
f 23/23/23 7/7/7 24/24/24
f 6/6/6 7/7/7 23/23/23
f 22/22/22 6/6/6 23/23/23
f 5/5/5 6/6/6 22/22/22
f 21/21/21 5/5/5 22/22/22
f 4/4/4 5/5/5 21/21/21
f 20/20/20 4/4/4 21/21/21
f 3/3/3 4/4/4 20/20/20
f 19/19/19 3/3/3 20/20/20
f 2/2/2 3/3/3 19/19/19
f 18/18/18 2/2/2 19/19/19
f 1/1/1 2/2/2 18/18/18
f 17/17/17 1/1/1 18/18/18
f 33/33/33 41/41/41 34/34/34
f 42/42/42 41/41/41 33/33/33
f 36/36/36 43/43/43 35/35/35
f 44/44/44 43/43/43 36/36/36
f 37/37/37 45/45/45 46/46/46
f 38/38/38 45/45/45 37/37/37
f 40/40/40 47/47/47 48/48/48
f 39/39/39 47/47/47 40/40/40
